<svg width="512" height="512" viewBox="0 0 512 512" fill="none" xmlns="http://www.w3.org/2000/svg">
<g clip-path="url(#clip0_66_10)">
<path d="M459.584 151.552C459.883 156.053 459.883 160.576 459.883 165.12C459.883 303.936 354.197 464 161.003 464V463.915C103.936 464 48.0427 447.659 0 416.832C8.29867 417.835 16.64 418.325 25.0027 418.347C72.32 418.389 118.272 402.517 155.456 373.291C110.507 372.437 71.0827 343.125 57.3227 300.331C73.0667 303.36 89.28 302.741 104.747 298.539C55.7227 288.64 20.48 245.568 20.48 195.563C20.48 195.115 20.48 194.667 20.48 194.24C35.0933 202.389 51.4347 206.891 68.16 207.381C21.9947 176.555 7.744 115.157 35.6267 67.1573C88.96 132.779 167.659 172.672 252.117 176.917C243.648 140.437 255.232 102.208 282.496 76.5439C324.8 36.7573 391.339 38.8053 431.125 81.1093C454.656 76.4799 477.205 67.8399 497.835 55.6159C489.984 79.9359 473.579 100.587 451.648 113.728C472.491 111.232 492.821 105.664 512 97.1733C497.899 118.272 480.149 136.683 459.584 151.552Z" fill="white"/>
</g>
<defs>
<clipPath id="clip0_66_10">
<rect width="512" height="512" fill="white"/>
</clipPath>
</defs>
</svg>
